<svg width="109" height="106" viewBox="0 0 109 106" fill="none" xmlns="http://www.w3.org/2000/svg">
<g id="&#240;&#159;&#166;&#134; icon &#34;arrow ios back&#34;">
<path id="Vector" d="M62.6673 83.9167C61.9903 83.9189 61.3215 83.7733 60.7098 83.4905C60.0982 83.2077 59.5594 82.7949 59.1329 82.2825L37.247 55.7825C36.5805 54.9922 36.2162 54.0009 36.2162 52.9779C36.2162 51.9549 36.5805 50.9636 37.247 50.1734L59.9032 23.6734C60.6723 22.7714 61.7775 22.2042 62.9757 22.0965C64.1739 21.9888 65.3669 22.3495 66.2922 23.0992C67.2176 23.8489 67.7995 24.9261 67.91 26.094C68.0205 27.2619 67.6504 28.4247 66.8813 29.3267L46.6267 53L66.2016 76.6734C66.7557 77.3217 67.1077 78.1111 67.2159 78.9483C67.3241 79.7854 67.184 80.6353 66.8122 81.3973C66.4404 82.1593 65.8524 82.8015 65.1178 83.248C64.3833 83.6945 63.5329 83.9265 62.6673 83.9167Z" fill="#231F20" fill-opacity="0.5"/>
</g>
</svg>
