<svg width="72" height="106" viewBox="0 0 72 106" fill="none" xmlns="http://www.w3.org/2000/svg">
<g id="&#240;&#159;&#166;&#134; icon &#34;arrow ios back&#34;">
<path id="Vector" d="M22.887 22.0003C23.564 21.9981 24.2328 22.1437 24.8444 22.4265C25.4561 22.7093 25.9949 23.1221 26.4214 23.6345L48.3073 50.1345C48.9737 50.9248 49.3381 51.916 49.3381 52.9391C49.3381 53.9621 48.9737 54.9534 48.3073 55.7436L25.6511 82.2436C24.8819 83.1456 23.7767 83.7128 22.5785 83.8205C21.3804 83.9282 20.1874 83.5675 19.262 82.8178C18.3367 82.0681 17.7547 80.9909 17.6443 79.823C17.5338 78.6551 17.9038 77.4923 18.673 76.5903L38.9276 52.917L19.3526 29.2436C18.7985 28.5953 18.4466 27.8059 18.3384 26.9687C18.2302 26.1316 18.3703 25.2817 18.7421 24.5197C19.1139 23.7577 19.7019 23.1155 20.4364 22.669C21.171 22.2225 22.0214 21.9904 22.887 22.0003Z" fill="#231F20" fill-opacity="0.5"/>
</g>
</svg>
